<?xml version="1.0" encoding="UTF-8" standalone="no"?><!-- Generator: Gravit.io --><svg xmlns="http://www.w3.org/2000/svg" xmlns:xlink="http://www.w3.org/1999/xlink" style="isolation:isolate" viewBox="820.75 398.25 210.5 122" width="210.5pt" height="122pt"><defs><clipPath id="_clipPath_CvuN9LLEq0NAKpDCxjPy12tvDJni4Pt7"><rect x="820.75" y="398.25" width="210.5" height="122"/></clipPath></defs><g clip-path="url(#_clipPath_CvuN9LLEq0NAKpDCxjPy12tvDJni4Pt7)"><g style="isolation:isolate"><path d=" M 1016 473 L 1016 443 L 926 488 L 926 518 L 1016 473 Z " fill="rgb(0,0,0)" vector-effect="non-scaling-stroke" stroke-width="0.1" stroke="rgb(0,0,0)" stroke-linejoin="miter" stroke-linecap="square" stroke-miterlimit="3"/><linearGradient id="_lgradient_66" x1="0" y1="0.5" x2="1" y2="0.5" gradientTransform="matrix(-90,0,0,75,1022,422.5)" gradientUnits="userSpaceOnUse"><stop offset="0%" stop-opacity="1" style="stop-color:rgb(32,191,85)"/><stop offset="100%" stop-opacity="1" style="stop-color:rgb(0,0,0)"/></linearGradient><path d=" M 1022 452.5 L 1022 422.5 L 932 467.5 L 932 497.5 L 1022 452.5 Z " fill="url(#_lgradient_66)" vector-effect="non-scaling-stroke" stroke-width="1.5" stroke="rgb(0,0,0)" stroke-linejoin="miter" stroke-linecap="square" stroke-miterlimit="3"/><linearGradient id="_lgradient_67" x1="0" y1="0.5" x2="1" y2="0.5" gradientTransform="matrix(-90,0,0,75,1029,400.5)" gradientUnits="userSpaceOnUse"><stop offset="1.7391304347826086%" stop-opacity="1" style="stop-color:rgb(192,192,192)"/><stop offset="96.52173913043478%" stop-opacity="1" style="stop-color:rgb(0,0,0)"/></linearGradient><path d=" M 1029 430.5 L 1029 400.5 L 939 445.5 L 939 475.5 L 1029 430.5 Z " fill="url(#_lgradient_67)" vector-effect="non-scaling-stroke" stroke-width="1.5" stroke="rgb(0,0,0)" stroke-linejoin="miter" stroke-linecap="square" stroke-miterlimit="3"/><path d=" M 836 473 L 836 443 L 926 488 L 926 518 L 836 473 Z " fill="rgb(0,0,0)" vector-effect="non-scaling-stroke" stroke-width="0.1" stroke="rgb(0,0,0)" stroke-linejoin="miter" stroke-linecap="square" stroke-miterlimit="3"/><linearGradient id="_lgradient_68" x1="0" y1="0.5" x2="1" y2="0.5" gradientTransform="matrix(90,0,0,75,830,422.5)" gradientUnits="userSpaceOnUse"><stop offset="0%" stop-opacity="1" style="stop-color:rgb(32,191,85)"/><stop offset="100%" stop-opacity="1" style="stop-color:rgb(0,0,0)"/></linearGradient><path d=" M 830 452.5 L 830 422.5 L 920 467.5 L 920 497.5 L 830 452.5 Z " fill="url(#_lgradient_68)" vector-effect="non-scaling-stroke" stroke-width="1.5" stroke="rgb(0,0,0)" stroke-linejoin="miter" stroke-linecap="square" stroke-miterlimit="3"/><linearGradient id="_lgradient_69" x1="0" y1="0.5" x2="1" y2="0.5" gradientTransform="matrix(90,0,0,75,823,400.5)" gradientUnits="userSpaceOnUse"><stop offset="0%" stop-opacity="1" style="stop-color:rgb(192,192,192)"/><stop offset="100%" stop-opacity="1" style="stop-color:rgb(0,0,0)"/></linearGradient><path d=" M 823 430.5 L 823 400.5 L 913 445.5 L 913 475.5 L 823 430.5 Z " fill="url(#_lgradient_69)" vector-effect="non-scaling-stroke" stroke-width="1.5" stroke="rgb(0,0,0)" stroke-linejoin="miter" stroke-linecap="square" stroke-miterlimit="3"/></g><path d=" M 901 438 C 917.427 411.359 934.114 411.379 951 438 Q 946.102 488.008 926 488 Q 906.34 487.992 901 438 Z " fill="rgb(0,0,0)"/><g style="isolation: isolate;"><path d=" M 901 438 C 917.427 411.359 934.114 411.379 951 438 Q 946.102 488.008 926 488 Q 906.34 487.992 901 438 Z " fill="none" vector-effect="non-scaling-stroke" stroke-width="2" stroke="rgb(0,0,0)" stroke-linejoin="miter" stroke-linecap="square" stroke-miterlimit="3"/><path d=" M 901 438 C 917.427 411.359 934.114 411.379 951 438 Q 946.102 488.008 926 488 Q 906.34 487.992 901 438 Z " fill="none" vector-effect="non-scaling-stroke" stroke-width="1" stroke="rgb(255,255,255)" stroke-linejoin="miter" stroke-linecap="square" stroke-miterlimit="3"/></g><path d=" M 1016 456.333 L 1016 473 L 926 518 L 836 473 L 836 456.333" fill="none" vector-effect="non-scaling-stroke" stroke-width="1.5" stroke="rgb(192,192,192)" stroke-linejoin="miter" stroke-linecap="square" stroke-miterlimit="3"/><linearGradient id="_lgradient_70" x1="0.1464466094067262" y1="0.14644660940672627" x2="0.8535533905932737" y2="0.8535533905932737" gradientTransform="matrix(8,0,0,4,913,446)" gradientUnits="userSpaceOnUse"><stop offset="0%" stop-opacity="1" style="stop-color:rgb(24,146,65)"/><stop offset="22.608695652173914%" stop-opacity="1" style="stop-color:rgb(49,153,84)"/><stop offset="42.173913043478265%" stop-opacity="1" style="stop-color:rgb(71,159,101)"/><stop offset="61.73913043478261%" stop-opacity="1" style="stop-color:rgb(101,167,124)"/><stop offset="83.04347826086956%" stop-opacity="1" style="stop-color:rgb(129,175,145)"/><stop offset="98.69565217391305%" stop-opacity="1" style="stop-color:rgb(192,192,192)"/></linearGradient><ellipse vector-effect="non-scaling-stroke" cx="917" cy="447.9999987796782" rx="4" ry="2" fill="url(#_lgradient_70)"/><linearGradient id="_lgradient_71" x1="0.1464466094067262" y1="0.14644660940672627" x2="0.8535533905932737" y2="0.8535533905932737" gradientTransform="matrix(8,0,0,4,931,446)" gradientUnits="userSpaceOnUse"><stop offset="0%" stop-opacity="1" style="stop-color:rgb(24,146,65)"/><stop offset="7.82608695652174%" stop-opacity="1" style="stop-color:rgb(34,149,72)"/><stop offset="20.434782608695652%" stop-opacity="1" style="stop-color:rgb(39,150,76)"/><stop offset="66.52173913043478%" stop-opacity="1" style="stop-color:rgb(108,169,128)"/><stop offset="79.56521739130434%" stop-opacity="1" style="stop-color:rgb(130,175,145)"/><stop offset="86.52173913043478%" stop-opacity="1" style="stop-color:rgb(144,179,156)"/><stop offset="100%" stop-opacity="1" style="stop-color:rgb(192,192,192)"/></linearGradient><ellipse vector-effect="non-scaling-stroke" cx="935" cy="447.9999987796782" rx="4" ry="2" fill="url(#_lgradient_71)"/></g></svg>