<?xml version="1.0" encoding="UTF-8" standalone="no"?><!-- Generator: Gravit.io --><svg xmlns="http://www.w3.org/2000/svg" xmlns:xlink="http://www.w3.org/1999/xlink" style="isolation:isolate" viewBox="845.5 461 209 119" width="209pt" height="119pt"><defs><clipPath id="_clipPath_h5yr6T0MQ4ov3u1DhoiodQHDwR0e9vIT"><rect x="845.5" y="461" width="209" height="119"/></clipPath></defs><g clip-path="url(#_clipPath_h5yr6T0MQ4ov3u1DhoiodQHDwR0e9vIT)"><g style="isolation:isolate"><path d=" M 1040 535 L 1040 505 L 950 550 L 950 580 L 1040 535 Z " fill="rgb(0,0,0)"/><linearGradient id="_lgradient_32" x1="0" y1="0.5" x2="1" y2="0.5" gradientTransform="matrix(-90,0,0,75,1046,482.5)" gradientUnits="userSpaceOnUse"><stop offset="0%" stop-opacity="1" style="stop-color:rgb(32,191,85)"/><stop offset="100%" stop-opacity="1" style="stop-color:rgb(0,0,0)"/></linearGradient><path d=" M 1046 512.5 L 1046 482.5 L 956 527.5 L 956 557.5 L 1046 512.5 Z " fill="url(#_lgradient_32)" vector-effect="non-scaling-stroke" stroke-width="1" stroke="rgb(0,0,0)" stroke-linejoin="miter" stroke-linecap="square" stroke-miterlimit="3"/><linearGradient id="_lgradient_33" x1="0" y1="0.5" x2="1" y2="0.5" gradientTransform="matrix(-90,0,0,75,1053,462.5)" gradientUnits="userSpaceOnUse"><stop offset="1.7391304347826086%" stop-opacity="1" style="stop-color:rgb(192,192,192)"/><stop offset="96.52173913043478%" stop-opacity="1" style="stop-color:rgb(0,0,0)"/></linearGradient><path d=" M 1053 492.5 L 1053 462.5 L 963 507.5 L 963 537.5 L 1053 492.5 Z " fill="url(#_lgradient_33)" vector-effect="non-scaling-stroke" stroke-width="1" stroke="rgb(0,0,0)" stroke-linejoin="miter" stroke-linecap="square" stroke-miterlimit="3"/><path d=" M 860 535 L 860 505 L 950 550 L 950 580 L 860 535 Z " fill="rgb(0,0,0)"/><linearGradient id="_lgradient_34" x1="0" y1="0.5" x2="1" y2="0.5" gradientTransform="matrix(90,0,0,75,854,482.5)" gradientUnits="userSpaceOnUse"><stop offset="0%" stop-opacity="1" style="stop-color:rgb(32,191,85)"/><stop offset="100%" stop-opacity="1" style="stop-color:rgb(0,0,0)"/></linearGradient><path d=" M 854 512.5 L 854 482.5 L 944 527.5 L 944 557.5 L 854 512.5 Z " fill="url(#_lgradient_34)" vector-effect="non-scaling-stroke" stroke-width="1" stroke="rgb(0,0,0)" stroke-linejoin="miter" stroke-linecap="square" stroke-miterlimit="3"/><linearGradient id="_lgradient_35" x1="0" y1="0.5" x2="1" y2="0.5" gradientTransform="matrix(90,0,0,75,847,462.5)" gradientUnits="userSpaceOnUse"><stop offset="0%" stop-opacity="1" style="stop-color:rgb(192,192,192)"/><stop offset="100%" stop-opacity="1" style="stop-color:rgb(0,0,0)"/></linearGradient><path d=" M 847 492.5 L 847 462.5 L 937 507.5 L 937 537.5 L 847 492.5 Z " fill="url(#_lgradient_35)" vector-effect="non-scaling-stroke" stroke-width="1" stroke="rgb(0,0,0)" stroke-linejoin="miter" stroke-linecap="square" stroke-miterlimit="3"/><path d=" M 925 500 C 941.427 473.359 958.114 473.379 975 500 Q 970.102 550.008 950 550 Q 930.34 549.992 925 500 Z " fill="rgb(0,0,0)"/><g style="isolation: isolate;"><path d=" M 925 500 C 941.427 473.359 958.114 473.379 975 500 Q 970.102 550.008 950 550 Q 930.34 549.992 925 500 Z " fill="none" vector-effect="non-scaling-stroke" stroke-width="2" stroke="rgb(0,0,0)" stroke-linejoin="miter" stroke-linecap="square" stroke-miterlimit="3"/><path d=" M 925 500 C 941.427 473.359 958.114 473.379 975 500 Q 970.102 550.008 950 550 Q 930.34 549.992 925 500 Z " fill="none" vector-effect="non-scaling-stroke" stroke-width="1" stroke="rgb(255,255,255)" stroke-linejoin="miter" stroke-linecap="square" stroke-miterlimit="3"/></g></g><linearGradient id="_lgradient_36" x1="0.1464466094067262" y1="0.14644660940672627" x2="0.8535533905932737" y2="0.8535533905932737" gradientTransform="matrix(8,0,0,4,937,508)" gradientUnits="userSpaceOnUse"><stop offset="0%" stop-opacity="1" style="stop-color:rgb(24,146,65)"/><stop offset="22.608695652173914%" stop-opacity="1" style="stop-color:rgb(49,153,84)"/><stop offset="42.173913043478265%" stop-opacity="1" style="stop-color:rgb(71,159,101)"/><stop offset="61.73913043478261%" stop-opacity="1" style="stop-color:rgb(101,167,124)"/><stop offset="83.04347826086956%" stop-opacity="1" style="stop-color:rgb(129,175,145)"/><stop offset="98.69565217391305%" stop-opacity="1" style="stop-color:rgb(192,192,192)"/></linearGradient><ellipse vector-effect="non-scaling-stroke" cx="941" cy="509.9999987796782" rx="4" ry="2" fill="url(#_lgradient_36)"/><linearGradient id="_lgradient_37" x1="0.1464466094067262" y1="0.14644660940672627" x2="0.8535533905932737" y2="0.8535533905932737" gradientTransform="matrix(8,0,0,4,955,508)" gradientUnits="userSpaceOnUse"><stop offset="0%" stop-opacity="1" style="stop-color:rgb(24,146,65)"/><stop offset="7.82608695652174%" stop-opacity="1" style="stop-color:rgb(34,149,72)"/><stop offset="20.434782608695652%" stop-opacity="1" style="stop-color:rgb(39,150,76)"/><stop offset="66.52173913043478%" stop-opacity="1" style="stop-color:rgb(108,169,128)"/><stop offset="79.56521739130434%" stop-opacity="1" style="stop-color:rgb(130,175,145)"/><stop offset="86.52173913043478%" stop-opacity="1" style="stop-color:rgb(144,179,156)"/><stop offset="100%" stop-opacity="1" style="stop-color:rgb(192,192,192)"/></linearGradient><ellipse vector-effect="non-scaling-stroke" cx="959" cy="509.9999987796782" rx="4" ry="2" fill="url(#_lgradient_37)"/><line x1="950" y1="579" x2="950" y2="551" vector-effect="non-scaling-stroke" stroke-width="1" stroke="rgb(0,0,0)" stroke-linejoin="miter" stroke-linecap="square" stroke-miterlimit="3"/></g></svg>